<mxfile host="app.diagrams.net" agent="Mozilla/5.0 (Macintosh; Intel Mac OS X 10_15_7) AppleWebKit/537.36 (KHTML, like Gecko) Chrome/131.0.0.0 Safari/537.36" version="25.0.1">
  <diagram id="C5RBs43oDa-KdzZeNtuy" name="Page-1">
    <mxGraphModel dx="2470" dy="1064" grid="1" gridSize="10" guides="1" tooltips="1" connect="1" arrows="1" fold="1" page="1" pageScale="1" pageWidth="827" pageHeight="1169" math="0" shadow="0">
      <root>
        <mxCell id="WIyWlLk6GJQsqaUBKTNV-0" />
        <mxCell id="WIyWlLk6GJQsqaUBKTNV-1" parent="WIyWlLk6GJQsqaUBKTNV-0" />
        <mxCell id="zUPtAFNNRI5ZuPYitFq5-0" value="Start" style="ellipse;whiteSpace=wrap;html=1;strokeWidth=3;fontStyle=1;fontSize=18;fontFamily=Times New Roman;" parent="WIyWlLk6GJQsqaUBKTNV-1" vertex="1">
          <mxGeometry x="260" y="190" width="140" height="80" as="geometry" />
        </mxCell>
        <mxCell id="zUPtAFNNRI5ZuPYitFq5-9" value="" style="edgeStyle=orthogonalEdgeStyle;rounded=0;orthogonalLoop=1;jettySize=auto;html=1;strokeWidth=3;fontStyle=1;fontSize=18;fontFamily=Times New Roman;" parent="WIyWlLk6GJQsqaUBKTNV-1" source="zUPtAFNNRI5ZuPYitFq5-6" target="zUPtAFNNRI5ZuPYitFq5-8" edge="1">
          <mxGeometry relative="1" as="geometry" />
        </mxCell>
        <mxCell id="QWadS4kIKav0SxmjL7wR-16" value="" style="edgeStyle=orthogonalEdgeStyle;rounded=0;orthogonalLoop=1;jettySize=auto;html=1;strokeWidth=3;" parent="WIyWlLk6GJQsqaUBKTNV-1" source="zUPtAFNNRI5ZuPYitFq5-6" target="zUPtAFNNRI5ZuPYitFq5-8" edge="1">
          <mxGeometry relative="1" as="geometry" />
        </mxCell>
        <mxCell id="zUPtAFNNRI5ZuPYitFq5-6" value="Denoising" style="whiteSpace=wrap;html=1;strokeWidth=3;fontStyle=1;fontSize=18;fontFamily=Times New Roman;" parent="WIyWlLk6GJQsqaUBKTNV-1" vertex="1">
          <mxGeometry x="240" y="550" width="180" height="60" as="geometry" />
        </mxCell>
        <mxCell id="zUPtAFNNRI5ZuPYitFq5-11" value="" style="edgeStyle=orthogonalEdgeStyle;rounded=0;orthogonalLoop=1;jettySize=auto;html=1;strokeWidth=3;fontStyle=1;fontSize=18;fontFamily=Times New Roman;" parent="WIyWlLk6GJQsqaUBKTNV-1" source="zUPtAFNNRI5ZuPYitFq5-8" target="zUPtAFNNRI5ZuPYitFq5-10" edge="1">
          <mxGeometry relative="1" as="geometry" />
        </mxCell>
        <mxCell id="zUPtAFNNRI5ZuPYitFq5-8" value="LSTM" style="whiteSpace=wrap;html=1;strokeWidth=3;fontStyle=1;fontSize=18;fontFamily=Times New Roman;" parent="WIyWlLk6GJQsqaUBKTNV-1" vertex="1">
          <mxGeometry x="240" y="650" width="180" height="60" as="geometry" />
        </mxCell>
        <mxCell id="zUPtAFNNRI5ZuPYitFq5-13" value="" style="edgeStyle=orthogonalEdgeStyle;rounded=0;orthogonalLoop=1;jettySize=auto;html=1;strokeWidth=3;fontStyle=1;fontSize=18;fontFamily=Times New Roman;" parent="WIyWlLk6GJQsqaUBKTNV-1" source="zUPtAFNNRI5ZuPYitFq5-10" target="zUPtAFNNRI5ZuPYitFq5-12" edge="1">
          <mxGeometry relative="1" as="geometry" />
        </mxCell>
        <mxCell id="zUPtAFNNRI5ZuPYitFq5-10" value="Output Classification Layer" style="whiteSpace=wrap;html=1;strokeWidth=3;fontStyle=1;fontSize=18;fontFamily=Times New Roman;" parent="WIyWlLk6GJQsqaUBKTNV-1" vertex="1">
          <mxGeometry x="230" y="760" width="200" height="60" as="geometry" />
        </mxCell>
        <mxCell id="zUPtAFNNRI5ZuPYitFq5-17" value="" style="edgeStyle=orthogonalEdgeStyle;rounded=0;orthogonalLoop=1;jettySize=auto;html=1;strokeWidth=3;fontStyle=1;fontSize=18;fontFamily=Times New Roman;" parent="WIyWlLk6GJQsqaUBKTNV-1" source="zUPtAFNNRI5ZuPYitFq5-12" target="zUPtAFNNRI5ZuPYitFq5-16" edge="1">
          <mxGeometry relative="1" as="geometry" />
        </mxCell>
        <mxCell id="zUPtAFNNRI5ZuPYitFq5-27" value="" style="edgeStyle=orthogonalEdgeStyle;rounded=0;orthogonalLoop=1;jettySize=auto;html=1;strokeWidth=3;fontStyle=1;fontSize=18;fontFamily=Times New Roman;" parent="WIyWlLk6GJQsqaUBKTNV-1" source="zUPtAFNNRI5ZuPYitFq5-12" target="zUPtAFNNRI5ZuPYitFq5-16" edge="1">
          <mxGeometry relative="1" as="geometry" />
        </mxCell>
        <mxCell id="zUPtAFNNRI5ZuPYitFq5-12" value="Activity Prediction" style="rhombus;whiteSpace=wrap;html=1;strokeWidth=3;fontStyle=1;fontSize=18;fontFamily=Times New Roman;" parent="WIyWlLk6GJQsqaUBKTNV-1" vertex="1">
          <mxGeometry x="230" y="870" width="200" height="110" as="geometry" />
        </mxCell>
        <mxCell id="zUPtAFNNRI5ZuPYitFq5-16" value="STAND" style="whiteSpace=wrap;html=1;strokeWidth=3;fontStyle=1;fontSize=18;fontFamily=Times New Roman;" parent="WIyWlLk6GJQsqaUBKTNV-1" vertex="1">
          <mxGeometry x="-70" y="1020" width="120" height="60" as="geometry" />
        </mxCell>
        <mxCell id="zUPtAFNNRI5ZuPYitFq5-22" value="WALK" style="rounded=0;whiteSpace=wrap;html=1;strokeWidth=3;fontStyle=1;fontSize=18;fontFamily=Times New Roman;" parent="WIyWlLk6GJQsqaUBKTNV-1" vertex="1">
          <mxGeometry x="640" y="1020" width="120" height="60" as="geometry" />
        </mxCell>
        <mxCell id="zUPtAFNNRI5ZuPYitFq5-23" value="RUN" style="rounded=0;whiteSpace=wrap;html=1;strokeWidth=3;fontStyle=1;fontSize=18;fontFamily=Times New Roman;" parent="WIyWlLk6GJQsqaUBKTNV-1" vertex="1">
          <mxGeometry x="100" y="1020" width="120" height="60" as="geometry" />
        </mxCell>
        <mxCell id="zUPtAFNNRI5ZuPYitFq5-34" value="EMPTY" style="rounded=0;whiteSpace=wrap;html=1;strokeWidth=3;fontStyle=1;fontSize=18;fontFamily=Times New Roman;" parent="WIyWlLk6GJQsqaUBKTNV-1" vertex="1">
          <mxGeometry x="440" y="1020" width="120" height="60" as="geometry" />
        </mxCell>
        <mxCell id="zUPtAFNNRI5ZuPYitFq5-35" value="" style="endArrow=classic;html=1;rounded=0;exitX=0;exitY=0.5;exitDx=0;exitDy=0;entryX=0.5;entryY=0;entryDx=0;entryDy=0;strokeWidth=3;fontStyle=1;fontSize=18;fontFamily=Times New Roman;" parent="WIyWlLk6GJQsqaUBKTNV-1" source="zUPtAFNNRI5ZuPYitFq5-12" target="zUPtAFNNRI5ZuPYitFq5-23" edge="1">
          <mxGeometry width="50" height="50" relative="1" as="geometry">
            <mxPoint x="190" y="870" as="sourcePoint" />
            <mxPoint x="240" y="820" as="targetPoint" />
            <Array as="points">
              <mxPoint x="160" y="925" />
            </Array>
          </mxGeometry>
        </mxCell>
        <mxCell id="zUPtAFNNRI5ZuPYitFq5-39" value="" style="endArrow=classic;html=1;rounded=0;exitX=1;exitY=0.5;exitDx=0;exitDy=0;entryX=0.5;entryY=0;entryDx=0;entryDy=0;strokeWidth=3;fontStyle=1;fontSize=18;fontFamily=Times New Roman;" parent="WIyWlLk6GJQsqaUBKTNV-1" source="zUPtAFNNRI5ZuPYitFq5-12" target="zUPtAFNNRI5ZuPYitFq5-22" edge="1">
          <mxGeometry width="50" height="50" relative="1" as="geometry">
            <mxPoint x="190" y="870" as="sourcePoint" />
            <mxPoint x="240" y="820" as="targetPoint" />
            <Array as="points">
              <mxPoint x="700" y="920" />
            </Array>
          </mxGeometry>
        </mxCell>
        <mxCell id="QWadS4kIKav0SxmjL7wR-5" value="" style="endArrow=classic;html=1;rounded=0;exitX=0.5;exitY=1;exitDx=0;exitDy=0;strokeWidth=3;fontStyle=1;fontSize=18;fontFamily=Times New Roman;entryX=1;entryY=0.25;entryDx=0;entryDy=0;" parent="WIyWlLk6GJQsqaUBKTNV-1" source="zUPtAFNNRI5ZuPYitFq5-34" edge="1" target="QWadS4kIKav0SxmjL7wR-27">
          <mxGeometry width="50" height="50" relative="1" as="geometry">
            <mxPoint x="270" y="1060" as="sourcePoint" />
            <mxPoint x="490" y="1140" as="targetPoint" />
            <Array as="points">
              <mxPoint x="500" y="1171" />
            </Array>
          </mxGeometry>
        </mxCell>
        <mxCell id="QWadS4kIKav0SxmjL7wR-6" value="" style="endArrow=classic;html=1;rounded=0;exitX=0.5;exitY=1;exitDx=0;exitDy=0;strokeWidth=3;fontStyle=1;fontSize=18;fontFamily=Times New Roman;entryX=1;entryY=0.75;entryDx=0;entryDy=0;" parent="WIyWlLk6GJQsqaUBKTNV-1" source="zUPtAFNNRI5ZuPYitFq5-22" target="QWadS4kIKav0SxmjL7wR-27" edge="1">
          <mxGeometry width="50" height="50" relative="1" as="geometry">
            <mxPoint x="270" y="1060" as="sourcePoint" />
            <mxPoint x="420" y="1171" as="targetPoint" />
            <Array as="points">
              <mxPoint x="700" y="1207" />
            </Array>
          </mxGeometry>
        </mxCell>
        <mxCell id="QWadS4kIKav0SxmjL7wR-8" value="" style="endArrow=classic;html=1;rounded=0;exitX=0.5;exitY=1;exitDx=0;exitDy=0;entryX=0;entryY=0.75;entryDx=0;entryDy=0;strokeWidth=3;fontStyle=1;fontSize=18;fontFamily=Times New Roman;" parent="WIyWlLk6GJQsqaUBKTNV-1" source="zUPtAFNNRI5ZuPYitFq5-16" target="QWadS4kIKav0SxmjL7wR-27" edge="1">
          <mxGeometry width="50" height="50" relative="1" as="geometry">
            <mxPoint x="-140" y="940" as="sourcePoint" />
            <mxPoint x="240" y="1214" as="targetPoint" />
            <Array as="points">
              <mxPoint x="-10" y="1210" />
            </Array>
          </mxGeometry>
        </mxCell>
        <mxCell id="QWadS4kIKav0SxmjL7wR-11" value="" style="endArrow=classic;html=1;rounded=0;exitX=0.5;exitY=1;exitDx=0;exitDy=0;strokeWidth=3;fontStyle=1;fontSize=18;fontFamily=Times New Roman;" parent="WIyWlLk6GJQsqaUBKTNV-1" edge="1">
          <mxGeometry width="50" height="50" relative="1" as="geometry">
            <mxPoint x="330" y="1229" as="sourcePoint" />
            <mxPoint x="330" y="1310" as="targetPoint" />
          </mxGeometry>
        </mxCell>
        <mxCell id="QWadS4kIKav0SxmjL7wR-14" value="Stop" style="ellipse;whiteSpace=wrap;html=1;strokeWidth=3;fontStyle=1;fontSize=18;fontFamily=Times New Roman;" parent="WIyWlLk6GJQsqaUBKTNV-1" vertex="1">
          <mxGeometry x="270" y="1310" width="120" height="80" as="geometry" />
        </mxCell>
        <mxCell id="QWadS4kIKav0SxmjL7wR-18" value="" style="endArrow=classic;html=1;rounded=0;strokeWidth=3;fontStyle=1;fontSize=18;fontFamily=Times New Roman;" parent="WIyWlLk6GJQsqaUBKTNV-1" edge="1">
          <mxGeometry width="50" height="50" relative="1" as="geometry">
            <mxPoint x="330" y="1280" as="sourcePoint" />
            <mxPoint x="330" y="290" as="targetPoint" />
            <Array as="points">
              <mxPoint x="840" y="1280" />
              <mxPoint x="840" y="290" />
            </Array>
          </mxGeometry>
        </mxCell>
        <mxCell id="zUPtAFNNRI5ZuPYitFq5-1" value="Capture CSI Data" style="shape=parallelogram;perimeter=parallelogramPerimeter;whiteSpace=wrap;html=1;fixedSize=1;strokeWidth=3;fontStyle=1;fontSize=18;fontFamily=Times New Roman;" parent="WIyWlLk6GJQsqaUBKTNV-1" vertex="1">
          <mxGeometry x="230" y="330" width="200" height="60" as="geometry" />
        </mxCell>
        <mxCell id="QWadS4kIKav0SxmjL7wR-19" value="Outliers Removal" style="whiteSpace=wrap;html=1;strokeWidth=3;fontStyle=1;fontSize=18;fontFamily=Times New Roman;" parent="WIyWlLk6GJQsqaUBKTNV-1" vertex="1">
          <mxGeometry x="240" y="440" width="180" height="60" as="geometry" />
        </mxCell>
        <mxCell id="QWadS4kIKav0SxmjL7wR-21" value="" style="endArrow=classic;html=1;rounded=0;exitX=0.5;exitY=1;exitDx=0;exitDy=0;entryX=0.5;entryY=0;entryDx=0;entryDy=0;strokeWidth=3;" parent="WIyWlLk6GJQsqaUBKTNV-1" source="zUPtAFNNRI5ZuPYitFq5-1" target="QWadS4kIKav0SxmjL7wR-19" edge="1">
          <mxGeometry width="50" height="50" relative="1" as="geometry">
            <mxPoint x="260" y="500" as="sourcePoint" />
            <mxPoint x="310" y="450" as="targetPoint" />
          </mxGeometry>
        </mxCell>
        <mxCell id="QWadS4kIKav0SxmjL7wR-22" value="" style="endArrow=classic;html=1;rounded=0;exitX=0.5;exitY=1;exitDx=0;exitDy=0;entryX=0.5;entryY=0;entryDx=0;entryDy=0;strokeWidth=3;" parent="WIyWlLk6GJQsqaUBKTNV-1" source="QWadS4kIKav0SxmjL7wR-19" target="zUPtAFNNRI5ZuPYitFq5-6" edge="1">
          <mxGeometry width="50" height="50" relative="1" as="geometry">
            <mxPoint x="260" y="500" as="sourcePoint" />
            <mxPoint x="310" y="450" as="targetPoint" />
          </mxGeometry>
        </mxCell>
        <mxCell id="QWadS4kIKav0SxmjL7wR-25" value="" style="endArrow=classic;html=1;rounded=0;exitX=0.5;exitY=1;exitDx=0;exitDy=0;entryX=0.5;entryY=0;entryDx=0;entryDy=0;strokeWidth=3;" parent="WIyWlLk6GJQsqaUBKTNV-1" source="zUPtAFNNRI5ZuPYitFq5-0" target="zUPtAFNNRI5ZuPYitFq5-1" edge="1">
          <mxGeometry width="50" height="50" relative="1" as="geometry">
            <mxPoint x="270" y="640" as="sourcePoint" />
            <mxPoint x="320" y="590" as="targetPoint" />
          </mxGeometry>
        </mxCell>
        <mxCell id="QWadS4kIKav0SxmjL7wR-27" value="&lt;font face=&quot;Times New Roman&quot; style=&quot;font-size: 18px;&quot;&gt;&lt;b&gt;Display Predicted Activity&lt;/b&gt;&lt;/font&gt;" style="shape=parallelogram;perimeter=parallelogramPerimeter;whiteSpace=wrap;html=1;fixedSize=1;strokeWidth=4;" parent="WIyWlLk6GJQsqaUBKTNV-1" vertex="1">
          <mxGeometry x="200" y="1150" width="250" height="79" as="geometry" />
        </mxCell>
        <mxCell id="QWadS4kIKav0SxmjL7wR-29" value="" style="endArrow=classic;html=1;rounded=0;exitX=0.5;exitY=1;exitDx=0;exitDy=0;strokeWidth=3;fontStyle=1;fontSize=18;fontFamily=Times New Roman;entryX=0;entryY=0.25;entryDx=0;entryDy=0;" parent="WIyWlLk6GJQsqaUBKTNV-1" source="zUPtAFNNRI5ZuPYitFq5-23" target="QWadS4kIKav0SxmjL7wR-27" edge="1">
          <mxGeometry width="50" height="50" relative="1" as="geometry">
            <mxPoint x="520" y="1100" as="sourcePoint" />
            <mxPoint x="445" y="1191" as="targetPoint" />
            <Array as="points">
              <mxPoint x="160" y="1173" />
            </Array>
          </mxGeometry>
        </mxCell>
        <mxCell id="C8IcdqDARZS9qUVP0XME-0" value="" style="endArrow=classic;html=1;rounded=0;exitX=1;exitY=0.5;exitDx=0;exitDy=0;entryX=0.5;entryY=0;entryDx=0;entryDy=0;strokeWidth=3;fontStyle=1;fontSize=18;fontFamily=Times New Roman;" edge="1" parent="WIyWlLk6GJQsqaUBKTNV-1" source="zUPtAFNNRI5ZuPYitFq5-12" target="zUPtAFNNRI5ZuPYitFq5-34">
          <mxGeometry width="50" height="50" relative="1" as="geometry">
            <mxPoint x="570" y="925" as="sourcePoint" />
            <mxPoint x="500" y="1020" as="targetPoint" />
            <Array as="points">
              <mxPoint x="500" y="925" />
            </Array>
          </mxGeometry>
        </mxCell>
        <mxCell id="C8IcdqDARZS9qUVP0XME-1" value="Fall" style="rounded=0;whiteSpace=wrap;html=1;strokeWidth=3;fontStyle=1;fontSize=18;fontFamily=Times New Roman;" vertex="1" parent="WIyWlLk6GJQsqaUBKTNV-1">
          <mxGeometry x="270" y="1020" width="120" height="60" as="geometry" />
        </mxCell>
        <mxCell id="C8IcdqDARZS9qUVP0XME-3" value="" style="endArrow=classic;html=1;rounded=0;exitX=0.5;exitY=1;exitDx=0;exitDy=0;strokeWidth=3;fontStyle=1;fontSize=18;fontFamily=Times New Roman;entryX=0.527;entryY=0.031;entryDx=0;entryDy=0;entryPerimeter=0;" edge="1" parent="WIyWlLk6GJQsqaUBKTNV-1" source="C8IcdqDARZS9qUVP0XME-1" target="QWadS4kIKav0SxmjL7wR-27">
          <mxGeometry width="50" height="50" relative="1" as="geometry">
            <mxPoint x="320" y="1080" as="sourcePoint" />
            <mxPoint x="374" y="1172" as="targetPoint" />
            <Array as="points" />
          </mxGeometry>
        </mxCell>
        <mxCell id="C8IcdqDARZS9qUVP0XME-5" value="" style="endArrow=classic;html=1;rounded=0;exitX=0.5;exitY=1;exitDx=0;exitDy=0;strokeWidth=3;fontStyle=1;fontSize=18;fontFamily=Times New Roman;" edge="1" parent="WIyWlLk6GJQsqaUBKTNV-1" source="zUPtAFNNRI5ZuPYitFq5-12" target="C8IcdqDARZS9qUVP0XME-1">
          <mxGeometry width="50" height="50" relative="1" as="geometry">
            <mxPoint x="320" y="1000" as="sourcePoint" />
            <mxPoint x="250" y="1095" as="targetPoint" />
            <Array as="points" />
          </mxGeometry>
        </mxCell>
      </root>
    </mxGraphModel>
  </diagram>
</mxfile>
